<?xml version="1.0" encoding="UTF-8"?>
<svg width="72px" height="82px" viewBox="0 0 72 82" version="1.1" xmlns="http://www.w3.org/2000/svg" xmlns:xlink="http://www.w3.org/1999/xlink">
    <!-- Generator: Sketch 51.1 (57501) - http://www.bohemiancoding.com/sketch -->
    <title>BILogo@3x</title>
    <desc>Created with Sketch.</desc>
    <defs></defs>
    <g id="Symbols" stroke="none" stroke-width="1" fill="none" fill-rule="evenodd">
        <g id="Bambu-Indah-Nav" fill="#FFFFFF" fill-rule="nonzero">
            <g id="BILogo">
                <path d="M45.1182717,47.2229936 C47.7283348,47.8916011 50.3523804,48.517832 52.948461,49.2476501 C54.672967,49.7185004 55.6004715,51.192262 56.5139936,52.6095215 C57.5207322,54.1633276 58.7884771,55.6135467 59.4363321,57.318025 C60.2706201,59.5121876 62.2328282,59.7240702 63.8501352,60.5480583 C66.0919929,61.6875161 68.380459,62.7328039 70.6456209,63.8440107 C72.0997989,64.5408692 72.0438689,65.8357077 71.9692957,66.9374975 L68.0728444,66.6126108 C66.8517077,69.2022876 66.9915325,71.7354625 67.5741359,74.3015969 C67.6347267,74.5699816 67.4529544,74.8948683 67.411007,75.0832084 L68.4503714,75.9919496 C68.0875558,76.2393095 67.7571281,76.5319845 67.4669369,76.8630227 C67.2825096,77.2601449 67.1553747,77.6819203 67.0894099,78.1154847 L70.6129951,78.1154847 L70.6782466,78.4027034 C70.4223164,78.5256697 70.1747483,78.665663 69.9371752,78.8217602 C69.7800264,78.9634372 69.6378839,79.1212355 69.5130399,79.2926105 C69.7227771,79.4103231 69.9231927,79.6080803 70.1422516,79.6316228 C70.6083342,79.6834163 71.046452,79.6316228 71.4985522,79.6551653 C71.6616811,79.6551653 71.8108276,79.8482139 71.9646349,79.9565095 C71.8248101,80.1118901 71.7036286,80.3802748 71.5404996,80.4273599 C70.9244789,80.5370541 70.3014083,80.6015721 69.6761689,80.6204085 C66.5689509,80.7083006 63.4741618,80.7883451 60.3918016,80.8605422 C59.5714961,80.8605422 58.7884771,80.9500037 58.5274708,82 L58.3596811,81.0582993 L55.344126,81.7975344 L55.0784589,79.250234 C54.2162059,79.297319 53.2141281,79.0901449 52.4777175,79.4668251 C51.8904533,79.7822949 51.6620728,80.7852061 51.144721,81.7127813 C50.6413517,79.8576309 50.981592,78.3791609 51.8671491,76.7641442 C50.9349838,76.7641442 50.3383979,76.7641442 49.7324904,76.7641442 C48.5253362,76.6982251 47.3088604,76.6464316 46.1110279,76.5051765 C44.5310075,76.3215448 44.0416207,76.7782697 44.0229774,78.595752 C44.0229774,79.2549425 43.9717083,79.9188415 44.0229774,80.5733235 C44.0928898,81.5997772 43.6547721,81.9011214 42.6620159,81.5950687 C42.6620159,80.4885704 42.6200685,79.3820721 42.6620159,78.2991163 C42.7086242,77.3103306 42.3497405,76.8018122 41.3476627,76.7688527 C39.3341855,76.7076421 37.3160474,76.6935166 35.2885877,76.6323061 C34.5754812,76.6323061 34.3843873,76.7829782 34.4356564,77.6022578 C34.4674857,78.7929743 34.3690111,79.9835992 34.1420243,81.1524694 C34.1047377,81.383186 33.6153509,81.6233197 33.3030755,81.6892388 C33.181894,81.7127813 32.8369928,81.2560565 32.8369928,81.0017973 C32.7857237,79.8105459 32.7857237,78.6098775 32.8369928,77.4139176 C32.8602969,76.7547272 32.6738638,76.472217 31.970079,76.472217 C29.7950264,76.472217 27.6199738,76.4314099 25.4449212,76.3497959 C24.671224,76.3262534 24.3915744,76.6040551 24.4055568,77.3856666 C24.4335218,78.4733309 24.3636094,79.5657037 24.3309836,80.681619 C24.2983578,81.7975344 24.2610712,81.7881173 23.0585779,81.7127813 L23.0585779,76.6652656 L17.8151476,76.1944153 C17.8943816,77.7717639 17.9782765,79.259651 18.0435281,80.7475381 C18.0435281,81.1948459 18.3278385,81.7928258 17.5308371,81.8681619 C16.8317131,81.9293724 16.4868119,81.6091942 16.5287593,80.8840847 C16.6079934,79.5892462 16.7058707,78.2944078 16.7384965,76.9948608 C16.7384965,76.7358932 16.510116,76.2462088 16.3656304,76.2367918 C15.5499857,76.1849982 15.6804888,75.5681843 15.7876878,75.1679615 C15.8576002,74.9042853 16.3376654,74.7630302 16.6033326,74.537022 C16.8689997,74.3110139 17.2605091,74.0661717 17.2791525,73.8213295 C17.4189773,71.9379281 17.4749072,70.0545268 17.5681237,67.9827853 C17.2669506,68.1299289 16.955371,68.2542617 16.6359583,68.354757 C16.0999632,68.4677611 15.5499857,68.5148461 15.0139906,68.6231417 C14.7483234,68.6796438 14.4686738,68.9339029 14.2402933,68.8868179 C13.5970992,68.7502713 12.9725484,68.4818866 12.8420452,67.7049835 C12.6509513,66.4948982 12.4878224,65.2848128 12.3340151,64.0700189 C12.3032666,63.8639954 12.3462325,63.6536464 12.4551966,63.4767475 C13.1403381,62.6480509 13.9140354,61.8805648 14.5479079,61.0142002 C15.7177754,59.4086005 17.642697,58.4574828 18.2765694,56.3904498 C18.5702015,55.4487491 19.2739864,55.5193766 20.5370705,56.4799113 C20.2154734,57.0355147 19.8659114,57.5911182 19.5769401,58.1796811 C19.5248351,58.3970186 19.5153349,58.6225565 19.5489752,58.8435801 C19.768034,58.815329 20.0523445,58.8435801 20.1875085,58.739993 C20.6535912,58.3303532 21.035779,57.8218348 21.5111833,57.431029 C21.7584468,57.2256437 22.0799442,57.1350455 22.3967404,57.1814784 C23.0141208,57.3943388 23.6089815,57.6687864 24.1725155,58.000758 C24.321662,58.085511 24.3729311,58.3538957 24.4941126,58.5751954 L22.0984475,58.2079321 L22.0145526,58.4480658 L23.1284903,59.0648797 L17.26517,65.0399706 L17.3770298,65.2188937 L18.6494356,64.9834686 C18.4676633,68.2135019 18.2952127,71.3729077 18.1181013,74.5652731 C19.6934608,74.6359006 21.2408554,74.7394877 22.7789282,74.7347792 C22.9653613,74.7347792 23.3102625,74.1556333 23.3102625,73.8495805 C23.3102625,71.6789605 23.2077243,69.5036319 23.1517944,67.3330118 C23.1517944,66.7444488 23.1517944,66.1558859 23.1517944,65.3648573 L23.8788834,66.4431046 L24.4801301,64.7904199 C24.4801301,66.0617158 24.4801301,67.1446716 24.4801301,68.260587 C24.4801301,70.1439883 24.5313992,72.0603492 24.5174167,73.9578761 C24.5174167,74.6029411 24.8529962,74.7441962 25.3610264,74.7347792 C26.5448764,74.7347792 27.7287264,74.6547346 28.9079157,74.6876942 C30.2595555,74.7253622 31.6065345,74.8383663 32.9535134,74.9466618 C33.6759416,75.0078724 33.8390706,74.6876942 33.7878015,74.0049612 C33.6572983,72.2628149 33.5873859,70.5112516 33.4801869,68.5901822 C34.4123523,69.739057 34.4123523,69.739057 34.2771883,70.9726849 C34.1699893,72.0509322 34.1280418,73.1385965 34.0534686,74.2168438 C34.016182,74.7724472 34.2771883,74.9419533 34.8038617,74.9419533 C37.103203,74.9419533 39.3994371,74.9654959 41.6925639,75.0125809 C42.2117657,75.0549784 42.7283181,75.1257092 43.2399585,75.2244635 C43.2912276,74.1320907 43.3518183,72.9078799 43.4077483,71.683669 C43.4543565,70.7702193 43.5242689,69.8614781 43.5382514,68.952737 C43.5708772,66.5419832 43.5848597,64.1312294 43.5941813,61.7204757 C43.5941813,61.5321355 43.496304,61.2119573 43.3751225,61.1789978 C42.9086573,61.0147422 42.4194872,60.9257591 41.9256053,60.9153216 C41.4482512,60.9911331 40.9797609,61.1157642 40.5273572,61.2872934 C40.449979,60.6102836 40.3047484,59.9429615 40.0939003,59.2955964 C39.8716928,58.8052794 39.4968686,58.4018181 39.0265709,58.1467216 C38.5604882,57.9112964 37.9545807,58.010175 37.4512114,57.8359603 C36.8863293,57.7031545 36.3647185,57.4258996 35.9364427,57.0308062 C34.0721119,54.7660161 32.3149801,52.4258899 30.487936,50.1328487 C30.1401589,49.8050346 29.7571381,49.5175944 29.3460334,49.2759011 L28.9079157,51.5406912 C28.2367566,48.4754555 27.6401707,45.7633575 27.0435849,42.952381 C29.2901035,44.7510293 31.3129024,46.8039368 33.8950005,48.1317347 C33.9322871,46.497884 32.8975835,45.3866772 32.398875,44.2754704 C33.1454723,44.3205756 33.8864764,44.4340451 34.6127678,44.6144827 C35.2377755,44.8745617 35.8194236,45.2302966 36.3372738,45.6691874 C36.5631368,45.9013198 36.7532401,46.1663778 36.9012339,46.4555075 C38.108388,45.805734 39.2316473,46.3801715 40.2244035,46.8321878 C41.8463712,47.5478803 43.3704616,48.480164 44.9551428,49.2853181 C45.2394532,49.4312817 45.6962143,49.5913708 45.919934,49.4689497 C47.6351183,48.489581 49.2104778,49.3889052 50.8557497,49.7043749 C52.6131944,50.0188807 54.1534778,51.0779471 55.0877806,52.61423 C55.9873201,54.026781 56.7936432,55.4675831 57.6465745,56.8942596 C57.9774933,57.4545716 58.3270553,58.0054665 58.6719565,58.5563614 C58.7977988,58.7541185 59.0168577,58.9283331 59.0494834,59.1402158 C59.2265949,60.2420056 59.8231807,60.0536655 60.3218892,59.8135318 C59.5761569,58.5893209 58.8444071,57.402778 58.1266397,56.2162351 C57.1944743,54.6671375 56.4440812,52.9202827 55.2555703,51.6160273 C54.20308,50.3532889 52.7477151,49.5007758 51.1400601,49.2052735 C49.4172113,48.8600309 47.7198024,48.3959413 46.0597588,47.816265 C45.7386749,47.6636504 45.4418049,47.4637125 45.1788625,47.2229936 L45.1182717,47.2229936 Z M50.902358,65.8686672 L51.3684407,65.8686672 L51.3684407,74.8477833 C52.0908688,75.0172894 52.43577,74.8713258 52.4311092,74.1085482 C52.4311092,71.066855 52.4311092,68.0251618 52.4031442,64.9834686 C52.3462854,64.6371972 52.1832606,64.3176939 51.9370615,64.0700189 C51.1214168,63.1283182 49.8956193,63.6745046 48.8655766,63.2601563 C47.4906326,62.6998444 45.8173958,62.8787675 45.136915,61.0989532 C44.3585569,61.7581437 44.0742465,62.4738362 44.409826,63.4061199 C44.4921757,63.6710197 44.5097672,63.952132 44.4610951,64.2253995 C43.9437434,67.6108135 44.0649249,71.0056445 44.2187321,74.4004754 C44.2187321,74.6359006 44.2839837,74.8713258 44.330592,75.1867955 L45.9012907,75.097334 C45.9292556,74.4475605 45.9618814,73.9249166 45.9758639,73.3975642 C46.0457763,70.7843448 46.0877237,68.1664169 46.2089052,65.5531975 C46.2089052,65.1671002 46.6749879,64.4655332 46.8567602,64.4749502 C47.9523448,64.5888772 49.0413364,64.7601833 50.119339,64.9881771 C49.5405191,65.1210421 48.940839,65.1322609 48.3575465,65.0211366 C47.4673285,64.903424 46.9313334,65.1388492 47.0944624,66.1935539 C47.3031008,67.2400578 47.433969,68.3008604 47.4859718,69.3670853 C47.4859718,70.6242557 47.2808954,71.8767176 47.1970006,73.133888 C47.1550531,73.769536 47.1970006,74.414601 47.1970006,74.9796214 C48.2550083,74.9796214 49.1918345,75.0267064 50.119339,74.9513703 C50.3850062,74.9513703 50.846428,74.5605646 50.8417672,74.3533904 C50.8417672,72.6112441 50.7159249,70.8738064 50.6972816,69.1363686 C50.7345682,68.0534128 50.846428,66.96104 50.902358,65.8686672 Z M60.6900945,65.529655 L60.6900945,75.0737914 L66.4555374,75.0737914 C66.306391,71.9379281 67.5135452,68.8679839 66.3996075,65.9110437 C64.3488437,66.3630601 62.6196769,65.1623917 60.6807729,65.529655 L60.6900945,65.529655 Z M53.7268191,63.9899743 C53.5869943,64.28661 53.4285262,64.4608247 53.4285262,64.6585818 C53.4285262,67.8886152 53.4005612,71.123357 53.4285262,74.3580989 C53.5115984,74.6256655 53.724361,74.8317227 53.9924862,74.9042853 C55.2415878,74.9702044 56.5000111,74.9654959 57.7491127,74.9890384 C58.2897687,74.9890384 58.3923068,74.7912812 58.4016285,74.2215523 C58.4342543,71.9850132 58.5927224,69.748474 58.6859389,67.5166434 C58.7698338,65.520238 58.8304246,65.1623917 56.7703391,64.7715859 C55.7402963,64.5785373 54.6310195,64.8139624 53.7174974,63.9899743 L53.7268191,63.9899743 Z M31.0239311,49.7514599 C31.3304591,49.8447294 31.6416058,49.9217401 31.9560965,49.9821766 C33.0234258,50.0810552 34.095416,50.1281402 35.1627454,50.2646868 C38.3181252,50.6649096 41.4735051,51.1075089 44.6335457,51.5077317 C45.130239,51.5285393 45.6277806,51.5049046 46.1203495,51.4371042 C45.6915535,51.0415899 45.328009,50.4954035 44.8246396,50.2788123 C41.5900257,48.8662613 38.1456746,48.8992208 34.7059844,48.9557228 C34.4698059,49.0093887 34.2444115,49.1033349 34.0394861,49.2335245 C37.7914518,49.4548242 41.5434175,49.1770225 45.0996284,50.9285858 C44.9551428,51.0133388 44.9271778,51.0462984 44.8992129,51.0415899 C41.2575534,50.6115466 37.615894,50.1799337 33.9742345,49.7467514 C33.8437682,49.7292428 33.7217589,49.6717227 33.6246725,49.5819538 C32.7903845,48.7767997 32.0399914,49.2146905 31.0146094,49.7514599 L31.0239311,49.7514599 Z M55.964016,80.3849833 C56.2390048,80.3849833 56.4720462,80.3849833 56.7050875,80.3849833 C59.2312557,80.2578537 61.7620847,80.1354326 64.2882529,79.9847605 C65.686501,79.9000075 67.1266965,79.7775864 68.5435879,79.6363313 C68.730021,79.6363313 68.9024716,79.4009061 69.079583,79.278485 C68.9071324,79.0995619 68.7626468,78.8076347 68.5529096,78.7558411 C68.2443323,78.7036849 67.9293214,78.7036849 67.6207442,78.7558411 C65.1272018,78.8641367 62.6289985,78.9912663 60.1307953,79.0807279 C59.0541443,79.1231044 57.9774933,79.1325214 56.9008422,79.0807279 C55.9220686,79.0383513 55.8241912,79.5562867 55.964016,80.3849833 Z M54.4632297,78.2896993 L54.4632297,78.0919421 C55.8614778,78.0919421 57.2597259,78.1249017 58.6253482,78.0636911 C58.872372,78.0636911 59.0914309,77.6352173 59.3291331,77.4092091 C59.09448,77.2249223 58.8356712,77.0743869 58.5600966,76.9619013 C58.1528282,76.8812866 57.7397779,76.8340478 57.3249775,76.8206462 C56.0525717,76.7076421 54.780166,76.585221 53.5077602,76.491051 C52.7247413,76.4345489 52.7340629,77.0089864 52.7247413,77.5551728 C52.7247413,78.1861122 53.1162508,78.3038248 53.6289417,78.2896993 L54.4632297,78.2896993 Z M63.0111863,77.0278204 L63.0111863,76.9760268 C62.494426,76.9406842 61.9758913,76.9406842 61.459131,76.9760268 C61.2726979,77.0042778 61.1188906,77.3056221 60.94644,77.4845452 C61.1188906,77.6163833 61.2820195,77.8518085 61.459131,77.8612255 C62.9039873,77.9553955 64.3488437,78.0401486 65.7937,78.0401486 C66.1402936,77.9954963 66.4414874,77.7779045 66.5953623,77.4610027 C66.7584912,76.8630227 66.3250343,76.6840996 65.7937,76.7358932 C64.8568738,76.8630227 63.9340301,76.9571928 63.0111863,77.0466544 L63.0111863,77.0278204 Z M59.7486075,65.3648573 L59.4782795,65.3224808 C59.3910287,65.5565535 59.3300564,65.7997788 59.2965073,66.0475903 C59.2126124,68.8726924 59.1411464,71.6977945 59.0821092,74.5228965 C59.0821092,74.6829857 59.249899,74.8477833 59.3384547,74.9937469 C59.4782795,74.8430748 59.7299642,74.6924027 59.7299642,74.5228965 C59.7392858,71.5235798 59.734625,68.4536356 59.734625,65.3836914 L59.7486075,65.3648573 Z M63.3607484,61.4144229 L63.5518423,61.0801192 L61.5803125,60.067791 L61.403201,60.4209287 L63.3607484,61.4144229 Z" id="Shape"></path>
                <path d="M20.6234149,58.2691628 L21.3110053,56.6298617 C20.3755082,56.160148 19.3885587,55.6246743 18.3875768,55.1784462 C16.4791626,54.3282642 14.5426836,53.5391451 12.6342694,52.684266 C11.946679,52.3742549 11.6052226,52.515169 11.4695755,53.2667111 C11.1795714,54.8449494 10.6510155,56.4137934 10.6135956,57.9967288 C10.5808532,59.3166245 11.156184,60.6459145 11.3807033,61.9845988 C11.956034,65.3853265 12.4845899,68.7907514 13.0271782,72.1961763 C13.111373,72.73165 13.1815352,73.2671237 13.256375,73.8025974 L13.0084683,73.9059344 L9.32260957,67.6070727 L9.08873529,67.6493469 C8.90163586,68.9363627 8.64437415,70.2186813 8.5321145,71.5150913 C8.29824021,74.333374 8.13452822,77.1516566 7.94742879,79.9981221 C7.89597645,80.7496642 7.63403725,81.2663493 6.75934743,81.2616522 C5.50110379,81.2616522 4.28963501,81.6233318 3.01735891,80.8764869 C2.19701906,80.5248479 1.76732311,79.6134527 2.01637698,78.7533806 C2.26428372,77.2737822 2.6291276,75.8129724 2.84429194,74.3286768 C3.37284782,70.7071836 4.32705489,67.1702389 4.37382975,63.4548029 C4.40625984,60.508609 4.94262092,57.5899218 5.95949739,54.8261608 C6.35708367,53.7505163 6.24482401,52.4775919 6.38047109,51.3127018 C6.42256847,50.979205 6.53015064,50.6551025 6.67983018,50.0209889 C8.45727473,50.5987368 10.1224596,51.1295134 11.7782895,51.6790785 C15.1320468,52.8016945 18.4811265,53.9477961 21.8442387,55.037532 C22.2013285,55.1227051 22.5776109,55.0546216 22.8826405,54.8496465 C24.178304,53.8491562 25.4084827,52.7594202 26.7041463,51.7589299 C26.9354245,51.6377459 27.1007685,51.4192226 27.1550573,51.1629933 C27.2093461,50.906764 27.1469129,50.6395739 26.9847954,50.434337 C25.8107465,48.2877451 24.68815,46.1223645 23.5187785,43.9804697 C23.4345838,43.8254642 23.1258697,43.7925842 22.8919955,43.6892472 C22.3634396,41.3406783 21.7460115,38.7431611 21.2127781,36.1409468 C21.0022913,35.1216679 20.9742263,34.0648119 20.8432567,32.8529504 C21.3858451,33.2756927 21.8114963,33.5950981 22.223115,33.933292 C23.0229651,34.581497 23.214742,34.4922514 23.5655534,33.5340353 C24.168949,31.88534 24.842507,30.2460389 25.488,28.6349206 L25.7639717,28.7476519 C25.2962231,30.7439355 24.8752494,32.7449162 24.4075008,34.7411997 C24.2283098,35.2826735 24.417241,35.8784096 24.8752494,36.216101 C27.8273851,38.8741483 30.3952026,41.9333773 32.5042285,45.3050626 C32.9683351,46.135242 33.3777143,46.9950984 33.7297297,47.8790941 L33.5145654,48.0528882 L26.4983369,42.181466 L28.5517531,52.0454553 L28.2991689,52.2897064 C27.7331931,51.3784617 27.2233472,51.6696842 26.7041463,52.1581866 C25.7125193,53.0976141 24.7255698,54.0370417 23.705878,54.9201036 C23.0744174,55.4696687 23.1539347,55.8595311 23.8415251,56.2493936 C24.5291154,56.639256 25.0670263,57.015027 25.661067,57.3861009 L28.9025645,52.2192494 C28.434816,53.4264138 27.9670674,54.628881 27.5507712,55.8454397 C27.3356068,56.4513705 27.1952823,57.080787 27.0222153,57.7242948 C26.9894729,57.9121803 26.8585033,58.1940086 26.9380206,58.2785571 C27.303478,58.668186 27.6891256,59.0382071 28.0933595,59.3870816 C27.9951323,59.4152644 27.8828727,59.4810244 27.7986779,59.4575387 C26.2457527,59.0488877 26.2363977,59.0441905 25.6938094,60.5707603 C25.2611412,61.9097894 24.7295495,63.2145209 24.1034642,64.4740818 C24.4449207,62.7032609 24.7396023,60.9183485 25.160576,59.1663161 C25.314933,58.5322025 25.1933184,58.2268886 24.6366976,58.0577916 C24.5413475,58.0141757 24.4491344,57.9639517 24.360726,57.9074832 C23.0463525,57.2310954 21.7366565,56.5687989 20.6421249,58.2550714 L20.6234149,58.2691628 Z" id="Shape"></path>
                <path d="M27.3871961,20.4430548 L23.1455247,14.1233885 L22.7973962,14.1607553 C22.4996546,15.0155217 22.1973325,15.8656173 21.8812684,16.7157128 C20.9040655,19.4933144 19.9329701,22.2740298 18.9679822,25.0578592 C18.9180744,25.1876095 18.8812397,25.3222001 18.8580469,25.4595527 C18.5923698,27.4446659 18.5923698,27.439995 16.5677275,27.2578317 C16.2608247,27.2298066 15.9493413,27.2578317 15.6515998,27.1971106 C13.8193443,26.9729096 13.1551517,25.4548818 13.9567635,23.7593616 C15.5645677,20.3496377 17.0715978,16.8932053 18.6106924,13.4461146 C18.9344701,12.5670587 19.3076471,11.7077545 19.7283682,10.8724737 C20.2734642,9.93830276 20.0994,9.26102884 19.604691,8.37823732 C18.6005506,6.58264074 17.7381932,4.70837807 17.0257914,2.77321177 C18.3129509,3.63264902 19.6321748,4.44537772 20.8735279,5.36553608 C21.6018495,5.90268436 21.9179135,5.74387531 22.2064938,4.95450088 C22.6645576,3.69337013 23.1821698,2.45559365 23.750169,1.00295786 C22.2981065,1.22715889 21.0017858,1.38129709 19.8749487,2.06791272 C19.9528195,1.8950911 19.9940453,1.60082726 20.1223032,1.56813127 C21.7759137,0.830136243 23.3791373,-0.0619969901 25.2709411,0.00339497461 C26.3657137,0.0407618116 27.4604864,0.00339497461 28.770549,0.00339497461 C28.124679,1.35794282 27.5291959,2.57236502 26.9382935,3.79612893 C26.324488,5.11798079 25.6923598,6.43049094 25.170167,7.78970963 C25.0741764,8.21536129 25.1736645,8.66241793 25.4404247,9.00413183 C26.869584,10.6622852 28.3674528,12.2737301 29.8378378,13.8805041 L29.6133865,14.1374011 L24.1670071,10.475451 C23.7497969,10.9591678 23.697463,11.6662489 24.0387492,12.2083381 C25.1243606,14.4783735 26.1229399,16.7951173 27.1077772,19.1118612 C27.2266884,19.5435922 27.2868,19.9899491 27.2864221,20.438384 L27.3871961,20.4430548 Z" id="Shape"></path>
                <path d="M30.8190331,23.3879091 C31.4067752,23.0535513 32.0199824,22.7657641 32.652987,22.5272075 C34.6865864,21.9256418 34.7608732,21.7729366 33.5304991,19.8525539 L30.2804543,21.9071321 L30.1597383,21.7544269 C31.0372504,21.0695675 31.8822621,20.3338064 32.8062034,19.7229859 C33.3540681,19.3620464 33.4608553,19.1167927 33.1544225,18.4967173 C30.8798975,14.0258578 29.7430686,9.06624529 29.8440197,4.05451336 C29.8440197,3.89255337 29.8440197,3.73059338 29.885806,3.25396825 C31.2043956,4.71623562 32.3976263,5.94250414 33.474784,7.26132123 C36.0429349,10.3325168 38.2098972,13.7159406 39.9238015,17.3306054 C40.1811905,17.646368 40.5695934,17.8271316 40.9777446,17.8211128 C44.4208744,17.628319 47.8450285,18.4473094 50.8253803,20.1764738 C50.9742588,20.2996503 51.1068657,20.441144 51.2200286,20.5975698 L51.2432432,20.5975698 C48.2439162,19.7877699 45.249232,18.9640876 42.2406191,18.1913071 C41.5944593,18.0852877 40.9408042,18.0311271 40.2859493,18.0293471 C40.5489075,18.957522 40.8588321,19.8718374 41.2145336,20.7687847 C41.3213208,21.0140384 41.8134704,21.1852532 42.1431178,21.2315275 C42.9602719,21.2916841 43.7867119,21.2315275 44.6177948,21.3703504 L41.7856129,21.7127801 C43.1784892,24.4290805 44.2324323,27.1314987 44.1627885,30.2226208 L40.9127437,25.3360565 L40.6248826,25.3360565 C40.9734485,28.1954042 40.7010999,31.0960227 39.8263001,33.8412698 C38.8378539,30.0949284 38.4230471,26.2212363 38.595926,22.3513652 C36.2512509,21.8886223 35.0394484,22.4716783 34.9233754,23.915436 C33.8740752,23.9894748 33.8044314,24.9889994 33.3494252,25.5304085 C32.8944189,26.0718176 32.476556,26.8723627 31.8544045,27.4507912 L33.8740752,22.8603823 L30.7818898,23.4156737 L30.8190331,23.3879091 Z M36.1398208,21.6017218 C36.6041129,21.5415652 36.8362589,21.5045458 37.068405,21.4860361 C39.0370036,21.3379584 38.5912831,21.3518406 39.0277177,19.7322407 C39.0469015,19.6302554 39.0732768,19.5297452 39.1066474,19.4314579 C39.4595094,18.709579 38.9859314,18.2792282 38.4752101,18.0015825 C38.1003564,17.8590654 37.6883627,17.8460299 37.305194,17.9645631 C36.874889,18.1015784 36.4620001,18.2879231 36.0748199,18.5198545 C34.8769462,19.1260476 34.7051581,19.681339 35.2715945,21.1065869 C36.0469623,20.426355 36.8176872,19.7507504 37.5930551,19.0705185 L37.8019865,19.2694979 L36.1398208,21.6017218 Z M37.4723391,17.5480945 L34.6355143,14.6420695 C34.7469444,15.7989266 34.8676604,17.0390774 35.0023051,18.4087962 L37.4723391,17.5480945 Z" id="Shape"></path>
                <path d="M12.6150856,25.3809524 C13.2336897,28.7611816 15.8822316,27.3969844 17.5135135,27.9650119 C16.6291388,30.8237732 15.6806125,33.5940712 14.9199586,36.4155848 C13.8889518,40.168291 12.9725013,43.953589 12.0560508,47.734231 C11.9190281,48.4485013 11.8713008,49.1774913 11.914001,49.9039098 C11.914001,50.5371208 11.6803061,50.8351024 11.0662843,50.7466391 C10.6017011,50.6916947 10.1420692,50.5998464 9.69160857,50.4719373 C8.95386592,50.253107 8.23903454,49.9085658 7.48754513,49.7595749 C6.51152536,49.5640245 6.3144885,49.377786 6.61691717,48.362786 C7.65708847,44.9266853 8.80265159,41.5185203 9.75117785,38.0544838 C10.7271976,34.4926721 11.5245095,30.8796447 12.3813908,27.2852413 C12.4913648,26.7823973 12.5051116,26.2376496 12.6150856,25.3809524 Z" id="Shape"></path>
                <path d="M25.9603361,24.7301587 C27.6393957,25.9773462 29.3368559,27.2056369 30.9929146,28.5095147 C33.8624636,30.718011 36.4267122,33.3164345 38.6153851,36.2335736 C39.4480146,37.3484836 40.1196384,38.5956711 40.8648649,39.781444 L40.8648649,39.7530988 L33.145791,34.9533167 C34.3096323,38.5956711 35.5056747,42.3325093 36.7017172,46.0646234 L36.3981064,46.2063492 C35.4964744,44.8867241 34.5963758,43.5670989 33.6978106,42.2474738 C30.3028902,37.2492755 27.9430064,31.7266915 26.0201382,25.9915188 C25.9457755,25.5899546 25.9271902,25.1795956 25.9649363,24.7726765 L25.9603361,24.7301587 Z" id="Shape"></path>
                <path d="M33.5335193,61.627926 C33.6258536,63.5172949 33.716649,65.409751 33.8059055,67.3052944 C33.8059055,67.5738811 33.8059055,67.8470987 33.8059055,68.3333333 C31.063576,62.4197939 29.1891892,56.515516 29.1891892,50.1111111 C32.3562566,52.4728223 37.6654804,60.6600875 38.2702703,64.2767471 L33.0302972,58.4975011 L32.7717611,58.5391783 L33.5335193,61.627926 Z" id="Shape"></path>
                <path d="M22.9328548,44.9047619 C23.9130642,46.6039172 24.8323036,48.217211 25.774993,49.8214666 C25.9262901,50.0285892 25.9804465,50.2873787 25.9242731,50.5348105 C25.8680997,50.7822423 25.7067516,50.9956088 25.4795232,51.1229473 C24.3726839,52.0041582 23.2939846,52.9079642 22.1965253,53.7710989 C21.3101158,54.4579915 20.6816562,53.4999571 19.9500167,53.3191959 C19.6920668,53.2468914 19.373147,52.4153899 19.481017,52.0990578 C20.4190164,49.6452245 21.033406,47.0558202 22.9328548,44.9047619 Z" id="Shape"></path>
                <path d="M15.5998855,50.1111111 C15.4515548,45.240006 15.700227,40.4608085 18.8108108,36.4444444 C18.7061067,41.2650004 16.2499234,45.4605843 15.5998855,50.1111111 Z" id="Shape"></path>
                <path d="M32.1018912,64.8101403 C32.2043124,65.4041241 32.3113891,65.998108 32.4324324,66.6851788 L25.7331522,67.6825397 L25.667975,67.3678169 L29.2201299,66.5787936 C29.1130531,65.390826 29.0106319,64.2604837 28.9082107,63.1124105 C27.8514097,63.1124105 27.3067149,63.4670277 27.3905141,64.473254 C27.4372336,65.0663772 27.3996502,65.6627909 27.2787818,66.24634 C26.5525221,65.483913 27.562768,63.959059 25.8355734,63.586711 L25.430544,65.9759444 C25.3886444,65.6523562 25.3700223,65.5548365 25.3607113,65.4573167 C25.1977684,63.4271332 25.1977684,63.4138351 27.2834373,62.979429 C28.1633289,62.793255 29.0525315,62.6602735 29.9417341,62.5361575 C31.1614779,62.3544162 31.389598,62.5361575 31.3383874,63.7773177 C31.3001244,64.0457037 31.2472912,64.3120232 31.1801,64.5752064 C31.0125016,64.0964732 30.9100804,63.8704047 30.8542142,63.6310381 C30.7983481,63.3916715 30.779726,63.1257086 30.7285154,62.7799568 L29.5786042,62.9439673 L29.5786042,66.6009572 L31.8551491,66.3128307 L31.8551491,64.8589002 L32.1018912,64.8101403 Z" id="Shape"></path>
                <path d="M33.7297297,3.75200729 C38.2646856,2.87875476 43.0038275,3.15831981 47.3513514,4.55555556 L33.7297297,3.75200729 Z" id="Shape"></path>
                <path d="M16.8876754,35.7936508 C17.8730905,33.2130239 19.0455519,30.7296917 20.9342642,28.7004015 C21.9087132,27.7561096 22.9320797,26.8652916 24,26.031746 C21.7189466,29.2749038 19.5975669,32.3373713 17.4533767,35.3720403 C17.282974,35.541626 17.083539,35.6782212 16.8648649,35.7751185 L16.8876754,35.7936508 Z" id="Shape"></path>
                <path d="M16.2162162,3.9047619 C15.9454426,8.41848073 15.6915924,12.6579365 15.4335113,16.9206349 C14.87081,12.6160998 14.3715712,8.33480726 16.2162162,3.9047619 Z" id="Shape"></path>
                <path d="M4.54054054,53.5408412 L0.169722951,58.5714286 C-0.243604365,56.3387788 0.00819273526,55.7544896 1.93705354,54.6144132 C2.71619929,54.1393813 3.55235569,53.7783571 4.36000677,53.3650794 L4.54054054,53.5408412 Z" id="Shape"></path>
                <path d="M26.5945946,57.6824319 C27.2224544,57.3092721 27.8828791,56.993049 28.5678627,56.7375959 C29.625332,56.4360525 29.8327782,56.6772872 29.8378378,57.8382293 C27.56099,58.843374 27.5002741,58.843374 26.6097736,57.662329 C26.6097736,57.6824319 26.5945946,57.6824319 26.5945946,57.6824319 Z" id="Shape"></path>
                <path d="M40.8648649,63.9484778 C40.6667137,65.2367291 40.4736434,66.4689696 40.280573,67.6825397 L39.8487051,67.6825397 C39.8487051,66.8703812 39.5590996,65.9275306 39.9147555,65.2740697 C40.4888858,64.2145297 40.0925834,63.845791 39.1221509,63.5330634 C39.0551713,63.503169 38.9974981,63.458214 38.9544845,63.4023712 C38.9544845,63.4023712 38.9544845,63.3370251 38.9189189,63.1269841 L40.8648649,63.9484778 Z" id="Shape"></path>
                <path d="M24,59.8730159 C23.7773296,61.4298566 23.5788624,62.8238279 23.3513514,64.4285714 C23.3513514,62.7807154 23.3513514,61.3436316 23.3755547,59.9017575 C23.3755547,59.892177 23.7579669,59.8825964 24,59.8730159 Z" id="Shape"></path>
                <path d="M39.5675676,67.6825397 L36.3243243,67.4658968 C37.6641397,66.7734892 38.6974291,66.9561489 39.5675676,67.6825397 Z" id="Shape"></path>
                <path d="M0,52.0634921 C0.0428150923,51.0543319 0.488092052,50.8249773 2.59459459,50.7619048 C2.05940594,51.0715335 1.66550709,51.3352912 1.25876371,51.5302426 C0.852020337,51.725194 0.428150923,51.8857423 0,52.0634921 Z" id="Shape"></path>
                <path d="M36.3243243,65.7301587 L36.3243243,63.1269841 C37.5501817,64.0985261 36.7372447,64.9352608 36.3243243,65.7301587 Z" id="Shape"></path>
                <polygon id="Shape" points="28.8778378 52.7304044 28.8778378 54.015873 28.5405405 54.015873 28.5405405 52.7142857"></polygon>
                <polygon id="Shape" points="33.7297297 62.4212642 33.9632432 60.5787358 34.1254054 60.5238095 34.3459459 62.4761905 33.7297297 62.4212642"></polygon>
                <polygon id="Shape" points="40.8648649 46.2411003 43.4347019 46.8571429 43.4594595 46.8381877 40.894574 46.2063492"></polygon>
                <polygon id="Shape" points="38.2702703 44.9225432 40.2162162 45.3777431 40.1222092 45.5555556 38.293772 44.9047619"></polygon>
                <polygon id="Shape" points="33.1246877 43.6031746 35.027027 44.0582011 34.9779696 44.2539683 33.0810811 43.7830688"></polygon>
                <polygon id="Shape" points="38.2702703 45.5245654 36.972973 45.1630134 37.0563707 44.9047619 38.2471042 45.5555556"></polygon>
                <polygon id="Shape" points="23.97732 54.6666667 23.6688717 55.3174603 23.3513514 55.1775397 24 54.6829365"></polygon>
                <path d="M31.1351351,24.0793651 L29.8378378,24.1444444 L29.8378378,24.1834921 L31.1168633,24.0793651 C31.1168633,24.0793651 31.1351351,24.0793651 31.1351351,24.0793651 Z" id="Shape"></path>
                <path d="M20.2443062,57.9206349 L20.2118738,57.9726984 C20.0107927,58.0442857 20.1405224,57.9726984 20.2767386,57.9726984 L20.2443062,57.9206349 Z" id="Shape"></path>
                <polygon id="Shape" points="44.1081081 46.8636508 44.7285546 47.3192063 44.7567568 47.2801587 44.1081081 46.8571429"></polygon>
                <polygon id="Shape" points="44.1081081 46.8766667 43.4802717 46.8766667 43.4594595 46.9222222 44.1081081 46.8571429"></polygon>
                <path d="M16.9556757,35.7936508 L16.8648649,36.4207792 L16.9037838,36.4444444 C16.9362162,36.2354016 16.9686486,36.0263588 16.9945946,35.8133718 L16.9556757,35.7936508 Z" id="Shape"></path>
                <path d="M32.0043243,42.952381 C32.0315583,42.9998955 32.0618947,43.0455507 32.0951351,43.0890476 C32.0562162,43.0890476 32.0172973,43.1346032 31.9848649,43.1280952 C31.9150175,43.1044258 31.847665,43.0739079 31.7837838,43.0369841 L32.0043243,42.952381 Z" id="Shape"></path>
                <path d="M16.9431877,36.4444444 C16.8848093,36.5680952 16.8264309,36.698254 16.8977823,36.5485714 L16.9821066,36.4834921 L16.9431877,36.4444444 Z" id="Shape"></path>
                <path d="M19.8940541,2.15412698 L19.4594595,2.05650794 L19.5048649,1.95238095 L19.9005405,2.15412698 C19.9005405,2.15412698 19.8940541,2.15412698 19.8940541,2.15412698 Z" id="Shape"></path>
                <polygon id="Shape" points="29.3448649 24.0793651 29.1891892 24.3071429 29.3772973 24.1184127"></polygon>
                <polygon id="Shape" points="51.2432432 20.8839683 51.3794595 20.8839683 51.2756757 20.8253968"></polygon>
                <path d="M41.0595345,46.2661937 L40.9427777,46.2661937 C40.7806155,46.1425429 40.9038588,46.233654 41.0206155,46.331273 L41.0595345,46.2661937 Z" id="Shape"></path>
                <path d="M40.8648649,39.7244444 L41.0659459,39.7244444 C41.0659459,39.7244444 41.0140541,39.7765079 41.0010811,39.77 C40.9881081,39.7634921 40.9297297,39.7179365 40.8972973,39.6984127 L40.8648649,39.7244444 Z" id="Shape"></path>
                <polygon id="Shape" points="31.1675676 43.0434921 31.1351351 42.952381 31.2259459 42.9588889"></polygon>
                <path d="M27.2432432,20.2526984 L27.3275676,20.1746032 C27.3245639,20.2027237 27.3245639,20.2310858 27.3275676,20.2592063 L27.2432432,20.2526984 Z" id="Shape"></path>
                <polygon id="Shape" points="28.56 52.0634921 28.6248649 52.1090476 28.5405405 52.0830159"></polygon>
                <polygon id="Shape" points="26.0302703 24.7692063 25.9459459 24.7692063 26.0043243 24.7301587"></polygon>
                <polygon id="Shape" points="24.6551351 54.7122222 24.732973 54.6666667 24.6486486 54.6731746"></polygon>
                <polygon id="Shape" points="24.4021622 54.6666667 24 55.0571429 24 55.0571429 24.3891892 54.6992063"></polygon>
                <polygon id="Shape" points="27.9437838 59.241746 27.8918919 59.3068254 27.9178378 59.2222222"></polygon>
                <polygon id="Shape" points="62.7335907 61.8253968 60.972973 60.8558471 61.1330291 60.5238095 62.9189189 61.4933592"></polygon>
                <path d="M56.8900541,67.3965703 L57.7297297,67.1144542 C57.6142188,68.1159664 57.5209215,69.0704591 57.3743115,70.015548 C57.3743115,70.1330964 57.0588778,70.307068 56.9300387,70.2835583 C56.222141,70.1626112 55.5218566,69.9961683 54.833071,69.7851532 C54.7131173,69.7522397 54.6598046,69.3948926 54.6198201,69.1739017 C54.529485,68.7687011 54.484747,68.3536153 54.4865382,67.9372928 C54.5387833,67.4135383 54.6218759,66.893747 54.735331,66.3809524 C55.3217711,66.5408182 55.9215394,66.6677704 56.5124222,66.8793575 C56.6945741,66.9451846 56.8056423,67.2273007 56.956695,67.4153781 L54.9530247,66.6395588 C54.5087518,69.1927094 55.0552074,69.9920384 57.121076,69.8932977 C57.2605431,69.4035059 57.34845,68.8989047 57.3831969,68.3886786 C57.3387697,68.0548412 57.0499923,67.7257058 56.8900541,67.3965703 Z" id="Shape"></path>
            </g>
        </g>
    </g>
</svg>